<mxfile host="app.diagrams.net" modified="2024-02-05T07:21:44.726Z" agent="Mozilla/5.0 (Windows NT 10.0; Win64; x64) AppleWebKit/537.36 (KHTML, like Gecko) Chrome/121.0.0.0 Safari/537.36" etag="d-uYTiBODtpAJ3DvvbbT" version="23.1.1" type="device">
  <diagram name="Page-1" id="8SK3fN_sRZz8_-mpbp4G">
    <mxGraphModel dx="510" dy="467" grid="1" gridSize="10" guides="1" tooltips="1" connect="1" arrows="1" fold="1" page="1" pageScale="1" pageWidth="1169" pageHeight="827" math="0" shadow="0">
      <root>
        <mxCell id="0" />
        <mxCell id="1" parent="0" />
        <mxCell id="WhKjYYhM0He9AYg5yABa-13" style="edgeStyle=orthogonalEdgeStyle;rounded=0;orthogonalLoop=1;jettySize=auto;html=1;curved=1;" edge="1" parent="1" source="WhKjYYhM0He9AYg5yABa-1" target="WhKjYYhM0He9AYg5yABa-4">
          <mxGeometry relative="1" as="geometry" />
        </mxCell>
        <mxCell id="WhKjYYhM0He9AYg5yABa-1" value="TS_INIT" style="ellipse;whiteSpace=wrap;html=1;aspect=fixed;" vertex="1" parent="1">
          <mxGeometry x="240" y="70" width="80" height="80" as="geometry" />
        </mxCell>
        <mxCell id="WhKjYYhM0He9AYg5yABa-16" style="edgeStyle=orthogonalEdgeStyle;rounded=0;orthogonalLoop=1;jettySize=auto;html=1;curved=1;" edge="1" parent="1" source="WhKjYYhM0He9AYg5yABa-2" target="WhKjYYhM0He9AYg5yABa-3">
          <mxGeometry relative="1" as="geometry" />
        </mxCell>
        <mxCell id="WhKjYYhM0He9AYg5yABa-2" value="TS_LISTEN" style="ellipse;whiteSpace=wrap;html=1;aspect=fixed;" vertex="1" parent="1">
          <mxGeometry x="240" y="190" width="80" height="80" as="geometry" />
        </mxCell>
        <mxCell id="WhKjYYhM0He9AYg5yABa-17" style="edgeStyle=orthogonalEdgeStyle;rounded=0;orthogonalLoop=1;jettySize=auto;html=1;curved=1;" edge="1" parent="1" source="WhKjYYhM0He9AYg5yABa-3" target="WhKjYYhM0He9AYg5yABa-7">
          <mxGeometry relative="1" as="geometry" />
        </mxCell>
        <mxCell id="WhKjYYhM0He9AYg5yABa-26" value="NO_CONNECTIONS &amp;gt; 0" style="edgeLabel;html=1;align=center;verticalAlign=middle;resizable=0;points=[];" vertex="1" connectable="0" parent="WhKjYYhM0He9AYg5yABa-17">
          <mxGeometry x="-0.4556" relative="1" as="geometry">
            <mxPoint y="5" as="offset" />
          </mxGeometry>
        </mxCell>
        <mxCell id="WhKjYYhM0He9AYg5yABa-27" value="new_connection == 1" style="edgeLabel;html=1;align=center;verticalAlign=middle;resizable=0;points=[];" vertex="1" connectable="0" parent="WhKjYYhM0He9AYg5yABa-17">
          <mxGeometry x="0.34" y="4" relative="1" as="geometry">
            <mxPoint y="-1" as="offset" />
          </mxGeometry>
        </mxCell>
        <mxCell id="WhKjYYhM0He9AYg5yABa-3" value="TS_ACCEPT" style="ellipse;whiteSpace=wrap;html=1;aspect=fixed;" vertex="1" parent="1">
          <mxGeometry x="240" y="340" width="80" height="80" as="geometry" />
        </mxCell>
        <mxCell id="WhKjYYhM0He9AYg5yABa-14" style="edgeStyle=orthogonalEdgeStyle;rounded=0;orthogonalLoop=1;jettySize=auto;html=1;curved=1;" edge="1" parent="1" source="WhKjYYhM0He9AYg5yABa-4" target="WhKjYYhM0He9AYg5yABa-6">
          <mxGeometry relative="1" as="geometry" />
        </mxCell>
        <mxCell id="WhKjYYhM0He9AYg5yABa-4" value="TS_&lt;br&gt;CREATE_SOCKET" style="ellipse;whiteSpace=wrap;html=1;aspect=fixed;" vertex="1" parent="1">
          <mxGeometry x="420" y="70" width="80" height="80" as="geometry" />
        </mxCell>
        <mxCell id="WhKjYYhM0He9AYg5yABa-15" style="edgeStyle=orthogonalEdgeStyle;rounded=0;orthogonalLoop=1;jettySize=auto;html=1;curved=1;" edge="1" parent="1" source="WhKjYYhM0He9AYg5yABa-6" target="WhKjYYhM0He9AYg5yABa-2">
          <mxGeometry relative="1" as="geometry" />
        </mxCell>
        <mxCell id="WhKjYYhM0He9AYg5yABa-6" value="TS_BIND" style="ellipse;whiteSpace=wrap;html=1;aspect=fixed;" vertex="1" parent="1">
          <mxGeometry x="420" y="190" width="80" height="80" as="geometry" />
        </mxCell>
        <mxCell id="WhKjYYhM0He9AYg5yABa-18" style="edgeStyle=orthogonalEdgeStyle;rounded=0;orthogonalLoop=1;jettySize=auto;html=1;" edge="1" parent="1" source="WhKjYYhM0He9AYg5yABa-7" target="WhKjYYhM0He9AYg5yABa-8">
          <mxGeometry relative="1" as="geometry" />
        </mxCell>
        <mxCell id="WhKjYYhM0He9AYg5yABa-22" style="edgeStyle=elbowEdgeStyle;rounded=0;orthogonalLoop=1;jettySize=auto;html=1;entryX=0;entryY=0.5;entryDx=0;entryDy=0;exitX=0;exitY=0.5;exitDx=0;exitDy=0;" edge="1" parent="1" source="WhKjYYhM0He9AYg5yABa-7" target="WhKjYYhM0He9AYg5yABa-3">
          <mxGeometry relative="1" as="geometry">
            <Array as="points">
              <mxPoint x="190" y="450" />
            </Array>
          </mxGeometry>
        </mxCell>
        <mxCell id="WhKjYYhM0He9AYg5yABa-23" style="edgeStyle=orthogonalEdgeStyle;rounded=0;orthogonalLoop=1;jettySize=auto;html=1;" edge="1" parent="1" source="WhKjYYhM0He9AYg5yABa-7" target="WhKjYYhM0He9AYg5yABa-9">
          <mxGeometry relative="1" as="geometry" />
        </mxCell>
        <mxCell id="WhKjYYhM0He9AYg5yABa-25" value="try_receive_length &amp;lt; 0" style="edgeLabel;html=1;align=center;verticalAlign=middle;resizable=0;points=[];" vertex="1" connectable="0" parent="WhKjYYhM0He9AYg5yABa-23">
          <mxGeometry x="-0.0846" y="-1" relative="1" as="geometry">
            <mxPoint y="-1" as="offset" />
          </mxGeometry>
        </mxCell>
        <mxCell id="WhKjYYhM0He9AYg5yABa-7" value="TS_RECEIVE" style="ellipse;whiteSpace=wrap;html=1;aspect=fixed;" vertex="1" parent="1">
          <mxGeometry x="240" y="520" width="80" height="80" as="geometry" />
        </mxCell>
        <mxCell id="WhKjYYhM0He9AYg5yABa-19" style="edgeStyle=orthogonalEdgeStyle;rounded=0;orthogonalLoop=1;jettySize=auto;html=1;entryX=1;entryY=0.5;entryDx=0;entryDy=0;elbow=vertical;exitX=0.5;exitY=0;exitDx=0;exitDy=0;" edge="1" parent="1" source="WhKjYYhM0He9AYg5yABa-8" target="WhKjYYhM0He9AYg5yABa-3">
          <mxGeometry relative="1" as="geometry" />
        </mxCell>
        <mxCell id="WhKjYYhM0He9AYg5yABa-8" value="TS_SEND" style="ellipse;whiteSpace=wrap;html=1;aspect=fixed;" vertex="1" parent="1">
          <mxGeometry x="380" y="420" width="80" height="80" as="geometry" />
        </mxCell>
        <mxCell id="WhKjYYhM0He9AYg5yABa-24" style="edgeStyle=orthogonalEdgeStyle;rounded=0;orthogonalLoop=1;jettySize=auto;html=1;entryX=0;entryY=0.5;entryDx=0;entryDy=0;exitX=0;exitY=0.5;exitDx=0;exitDy=0;" edge="1" parent="1" source="WhKjYYhM0He9AYg5yABa-9" target="WhKjYYhM0He9AYg5yABa-3">
          <mxGeometry relative="1" as="geometry">
            <Array as="points">
              <mxPoint x="140" y="740" />
              <mxPoint x="140" y="380" />
            </Array>
          </mxGeometry>
        </mxCell>
        <mxCell id="WhKjYYhM0He9AYg5yABa-9" value="TS_CLOSE" style="ellipse;whiteSpace=wrap;html=1;aspect=fixed;" vertex="1" parent="1">
          <mxGeometry x="240" y="700" width="80" height="80" as="geometry" />
        </mxCell>
        <mxCell id="WhKjYYhM0He9AYg5yABa-35" value="" style="curved=1;endArrow=classic;html=1;rounded=0;exitX=1;exitY=1;exitDx=0;exitDy=0;entryX=0.904;entryY=0.163;entryDx=0;entryDy=0;entryPerimeter=0;" edge="1" parent="1" source="WhKjYYhM0He9AYg5yABa-3" target="WhKjYYhM0He9AYg5yABa-3">
          <mxGeometry width="50" height="50" relative="1" as="geometry">
            <mxPoint x="380" y="350" as="sourcePoint" />
            <mxPoint x="430" y="300" as="targetPoint" />
            <Array as="points">
              <mxPoint x="370" y="410" />
              <mxPoint x="340" y="330" />
            </Array>
          </mxGeometry>
        </mxCell>
      </root>
    </mxGraphModel>
  </diagram>
</mxfile>
